<mxfile host="Electron" agent="Mozilla/5.0 (Windows NT 10.0; Win64; x64) AppleWebKit/537.36 (KHTML, like Gecko) draw.io/27.0.9 Chrome/134.0.6998.205 Electron/35.4.0 Safari/537.36" version="27.0.9">
  <diagram name="Page-1" id="US3879ExqTL5g9IHJCky">
    <mxGraphModel dx="1042" dy="626" grid="1" gridSize="10" guides="1" tooltips="1" connect="1" arrows="1" fold="1" page="1" pageScale="1" pageWidth="827" pageHeight="1169" math="0" shadow="0">
      <root>
        <mxCell id="0" />
        <mxCell id="1" parent="0" />
        <mxCell id="gqXj0iiXVJBeGMeopf4N-1" value="&lt;font style=&quot;font-size: 31px;&quot;&gt;Integration Model&lt;/font&gt;" style="text;html=1;align=center;verticalAlign=middle;whiteSpace=wrap;rounded=0;fontFamily=Lucida Console;fontSize=29;" parent="1" vertex="1">
          <mxGeometry x="30" y="40" width="330" height="50" as="geometry" />
        </mxCell>
        <mxCell id="gqXj0iiXVJBeGMeopf4N-2" value="&lt;font face=&quot;Lucida Console&quot;&gt;(How the tables are related)&lt;/font&gt;" style="text;html=1;align=center;verticalAlign=middle;whiteSpace=wrap;rounded=0;" parent="1" vertex="1">
          <mxGeometry x="340" y="40" width="240" height="50" as="geometry" />
        </mxCell>
        <mxCell id="gqXj0iiXVJBeGMeopf4N-3" value="&lt;font style=&quot;color: rgb(0, 0, 0);&quot;&gt;&lt;b&gt;crm_cust_info&lt;/b&gt;&lt;/font&gt;" style="swimlane;fontStyle=0;childLayout=stackLayout;horizontal=1;startSize=30;horizontalStack=0;resizeParent=1;resizeParentMax=0;resizeLast=0;collapsible=1;marginBottom=0;whiteSpace=wrap;html=1;rounded=1;fillColor=#cdeb8b;strokeColor=#36393d;glass=0;shadow=0;fontFamily=Lucida Console;fontSize=14;" parent="1" vertex="1">
          <mxGeometry x="339" y="240" width="150" height="90" as="geometry">
            <mxRectangle x="340" y="240" width="140" height="30" as="alternateBounds" />
          </mxGeometry>
        </mxCell>
        <mxCell id="gqXj0iiXVJBeGMeopf4N-4" value="cst_id" style="text;strokeColor=none;fillColor=none;align=left;verticalAlign=middle;spacingLeft=4;spacingRight=4;overflow=hidden;points=[[0,0.5],[1,0.5]];portConstraint=eastwest;rotatable=0;whiteSpace=wrap;html=1;glass=0;shadow=0;fontFamily=Lucida Console;fontSize=14;rounded=1;" parent="gqXj0iiXVJBeGMeopf4N-3" vertex="1">
          <mxGeometry y="30" width="150" height="30" as="geometry" />
        </mxCell>
        <mxCell id="gqXj0iiXVJBeGMeopf4N-25" value="cst_key" style="text;strokeColor=none;fillColor=none;align=left;verticalAlign=middle;spacingLeft=4;spacingRight=4;overflow=hidden;points=[[0,0.5],[1,0.5]];portConstraint=eastwest;rotatable=0;whiteSpace=wrap;html=1;glass=0;shadow=0;fontFamily=Lucida Console;fontSize=14;rounded=1;" parent="gqXj0iiXVJBeGMeopf4N-3" vertex="1">
          <mxGeometry y="60" width="150" height="30" as="geometry" />
        </mxCell>
        <mxCell id="gqXj0iiXVJBeGMeopf4N-7" value="Customer Information" style="text;html=1;align=center;verticalAlign=middle;whiteSpace=wrap;rounded=0;" parent="1" vertex="1">
          <mxGeometry x="350" y="210" width="120" height="30" as="geometry" />
        </mxCell>
        <mxCell id="gqXj0iiXVJBeGMeopf4N-10" value="Current &amp;amp; History Product Information" style="text;html=1;align=center;verticalAlign=middle;whiteSpace=wrap;rounded=0;" parent="1" vertex="1">
          <mxGeometry x="309" y="370" width="210" height="30" as="geometry" />
        </mxCell>
        <mxCell id="gqXj0iiXVJBeGMeopf4N-11" value="&lt;font style=&quot;color: rgb(0, 0, 0);&quot;&gt;&lt;b&gt;crm_prd_info&lt;/b&gt;&lt;/font&gt;" style="swimlane;fontStyle=0;childLayout=stackLayout;horizontal=1;startSize=30;horizontalStack=0;resizeParent=1;resizeParentMax=0;resizeLast=0;collapsible=1;marginBottom=0;whiteSpace=wrap;html=1;rounded=1;fillColor=#cdeb8b;strokeColor=#36393d;glass=0;shadow=0;fontFamily=Lucida Console;fontSize=14;" parent="1" vertex="1">
          <mxGeometry x="335" y="400" width="150" height="60" as="geometry">
            <mxRectangle x="340" y="240" width="140" height="30" as="alternateBounds" />
          </mxGeometry>
        </mxCell>
        <mxCell id="gqXj0iiXVJBeGMeopf4N-12" value="prd_key" style="text;strokeColor=none;fillColor=none;align=left;verticalAlign=middle;spacingLeft=4;spacingRight=4;overflow=hidden;points=[[0,0.5],[1,0.5]];portConstraint=eastwest;rotatable=0;whiteSpace=wrap;html=1;glass=0;shadow=0;fontFamily=Lucida Console;fontSize=14;rounded=1;" parent="gqXj0iiXVJBeGMeopf4N-11" vertex="1">
          <mxGeometry y="30" width="150" height="30" as="geometry" />
        </mxCell>
        <mxCell id="gqXj0iiXVJBeGMeopf4N-14" value="Transactional Records about Sales &amp;amp; Orders" style="text;html=1;align=center;verticalAlign=middle;whiteSpace=wrap;rounded=0;" parent="1" vertex="1">
          <mxGeometry x="68" y="280" width="190" height="30" as="geometry" />
        </mxCell>
        <mxCell id="gqXj0iiXVJBeGMeopf4N-15" value="&lt;font style=&quot;color: rgb(0, 0, 0);&quot;&gt;&lt;b&gt;crm_sales_details&lt;/b&gt;&lt;/font&gt;" style="swimlane;fontStyle=0;childLayout=stackLayout;horizontal=1;startSize=30;horizontalStack=0;resizeParent=1;resizeParentMax=0;resizeLast=0;collapsible=1;marginBottom=0;whiteSpace=wrap;html=1;rounded=1;fillColor=#cdeb8b;strokeColor=#36393d;glass=0;shadow=0;fontFamily=Lucida Console;fontSize=14;" parent="1" vertex="1">
          <mxGeometry x="86" y="310" width="154" height="90" as="geometry">
            <mxRectangle x="340" y="240" width="140" height="30" as="alternateBounds" />
          </mxGeometry>
        </mxCell>
        <mxCell id="gqXj0iiXVJBeGMeopf4N-17" value="cst_id" style="text;strokeColor=none;fillColor=none;align=left;verticalAlign=middle;spacingLeft=4;spacingRight=4;overflow=hidden;points=[[0,0.5],[1,0.5]];portConstraint=eastwest;rotatable=0;whiteSpace=wrap;html=1;glass=0;shadow=0;fontFamily=Lucida Console;fontSize=14;rounded=1;" parent="gqXj0iiXVJBeGMeopf4N-15" vertex="1">
          <mxGeometry y="30" width="154" height="30" as="geometry" />
        </mxCell>
        <mxCell id="gqXj0iiXVJBeGMeopf4N-20" value="prd_key" style="text;strokeColor=none;fillColor=none;align=left;verticalAlign=middle;spacingLeft=4;spacingRight=4;overflow=hidden;points=[[0,0.5],[1,0.5]];portConstraint=eastwest;rotatable=0;whiteSpace=wrap;html=1;glass=0;shadow=0;fontFamily=Lucida Console;fontSize=14;rounded=1;" parent="gqXj0iiXVJBeGMeopf4N-15" vertex="1">
          <mxGeometry y="60" width="154" height="30" as="geometry" />
        </mxCell>
        <mxCell id="gqXj0iiXVJBeGMeopf4N-18" style="edgeStyle=orthogonalEdgeStyle;rounded=0;orthogonalLoop=1;jettySize=auto;html=1;entryX=0;entryY=0.5;entryDx=0;entryDy=0;" parent="1" source="gqXj0iiXVJBeGMeopf4N-17" target="gqXj0iiXVJBeGMeopf4N-4" edge="1">
          <mxGeometry relative="1" as="geometry" />
        </mxCell>
        <mxCell id="gqXj0iiXVJBeGMeopf4N-21" style="edgeStyle=orthogonalEdgeStyle;rounded=0;orthogonalLoop=1;jettySize=auto;html=1;entryX=0;entryY=0.5;entryDx=0;entryDy=0;" parent="1" source="gqXj0iiXVJBeGMeopf4N-20" target="gqXj0iiXVJBeGMeopf4N-12" edge="1">
          <mxGeometry relative="1" as="geometry" />
        </mxCell>
        <mxCell id="gqXj0iiXVJBeGMeopf4N-22" value="&lt;font style=&quot;color: rgb(0, 0, 0);&quot;&gt;&lt;b&gt;erp_cust_az12&lt;/b&gt;&lt;/font&gt;" style="swimlane;fontStyle=0;childLayout=stackLayout;horizontal=1;startSize=30;horizontalStack=0;resizeParent=1;resizeParentMax=0;resizeLast=0;collapsible=1;marginBottom=0;whiteSpace=wrap;html=1;rounded=1;fillColor=#ffcccc;strokeColor=#36393d;glass=0;shadow=0;fontFamily=Lucida Console;fontSize=14;" parent="1" vertex="1">
          <mxGeometry x="705.5" y="209" width="150" height="60" as="geometry">
            <mxRectangle x="340" y="240" width="140" height="30" as="alternateBounds" />
          </mxGeometry>
        </mxCell>
        <mxCell id="gqXj0iiXVJBeGMeopf4N-23" value="cid" style="text;strokeColor=none;fillColor=none;align=left;verticalAlign=middle;spacingLeft=4;spacingRight=4;overflow=hidden;points=[[0,0.5],[1,0.5]];portConstraint=eastwest;rotatable=0;whiteSpace=wrap;html=1;glass=0;shadow=0;fontFamily=Lucida Console;fontSize=14;rounded=1;" parent="gqXj0iiXVJBeGMeopf4N-22" vertex="1">
          <mxGeometry y="30" width="150" height="30" as="geometry" />
        </mxCell>
        <mxCell id="gqXj0iiXVJBeGMeopf4N-24" value="Extra Customer Information (Birthdates)" style="text;html=1;align=center;verticalAlign=middle;whiteSpace=wrap;rounded=0;fillColor=none;strokeColor=none;" parent="1" vertex="1">
          <mxGeometry x="670" y="184" width="221" height="30" as="geometry" />
        </mxCell>
        <mxCell id="gqXj0iiXVJBeGMeopf4N-27" style="edgeStyle=orthogonalEdgeStyle;rounded=0;orthogonalLoop=1;jettySize=auto;html=1;" parent="1" source="gqXj0iiXVJBeGMeopf4N-23" target="gqXj0iiXVJBeGMeopf4N-25" edge="1">
          <mxGeometry relative="1" as="geometry" />
        </mxCell>
        <mxCell id="gqXj0iiXVJBeGMeopf4N-28" value="&lt;font style=&quot;color: rgb(0, 0, 0);&quot;&gt;&lt;b&gt;erp_loc_a101&lt;/b&gt;&lt;/font&gt;" style="swimlane;fontStyle=0;childLayout=stackLayout;horizontal=1;startSize=30;horizontalStack=0;resizeParent=1;resizeParentMax=0;resizeLast=0;collapsible=1;marginBottom=0;whiteSpace=wrap;html=1;rounded=1;fillColor=#ffcccc;strokeColor=#36393d;glass=0;shadow=0;fontFamily=Lucida Console;fontSize=14;" parent="1" vertex="1">
          <mxGeometry x="705.5" y="336" width="150" height="60" as="geometry">
            <mxRectangle x="340" y="240" width="140" height="30" as="alternateBounds" />
          </mxGeometry>
        </mxCell>
        <mxCell id="gqXj0iiXVJBeGMeopf4N-29" value="cid" style="text;strokeColor=none;fillColor=none;align=left;verticalAlign=middle;spacingLeft=4;spacingRight=4;overflow=hidden;points=[[0,0.5],[1,0.5]];portConstraint=eastwest;rotatable=0;whiteSpace=wrap;html=1;glass=0;shadow=0;fontFamily=Lucida Console;fontSize=14;rounded=1;" parent="gqXj0iiXVJBeGMeopf4N-28" vertex="1">
          <mxGeometry y="30" width="150" height="30" as="geometry" />
        </mxCell>
        <mxCell id="gqXj0iiXVJBeGMeopf4N-30" value="Location of Customer (Country)" style="text;html=1;align=center;verticalAlign=middle;whiteSpace=wrap;rounded=0;fillColor=none;strokeColor=none;" parent="1" vertex="1">
          <mxGeometry x="670" y="309" width="221" height="30" as="geometry" />
        </mxCell>
        <mxCell id="gqXj0iiXVJBeGMeopf4N-31" style="edgeStyle=orthogonalEdgeStyle;rounded=0;orthogonalLoop=1;jettySize=auto;html=1;entryX=1;entryY=0.5;entryDx=0;entryDy=0;" parent="1" source="gqXj0iiXVJBeGMeopf4N-29" target="gqXj0iiXVJBeGMeopf4N-25" edge="1">
          <mxGeometry relative="1" as="geometry" />
        </mxCell>
        <mxCell id="gqXj0iiXVJBeGMeopf4N-35" style="edgeStyle=orthogonalEdgeStyle;rounded=0;orthogonalLoop=1;jettySize=auto;html=1;entryX=1;entryY=0.5;entryDx=0;entryDy=0;" parent="1" source="gqXj0iiXVJBeGMeopf4N-32" target="gqXj0iiXVJBeGMeopf4N-12" edge="1">
          <mxGeometry relative="1" as="geometry" />
        </mxCell>
        <mxCell id="gqXj0iiXVJBeGMeopf4N-32" value="&lt;font style=&quot;color: rgb(0, 0, 0);&quot;&gt;&lt;b&gt;erp_px_cat_g1v2&lt;/b&gt;&lt;/font&gt;" style="swimlane;fontStyle=0;childLayout=stackLayout;horizontal=1;startSize=30;horizontalStack=0;resizeParent=1;resizeParentMax=0;resizeLast=0;collapsible=1;marginBottom=0;whiteSpace=wrap;html=1;rounded=1;fillColor=#ffcccc;strokeColor=#36393d;glass=0;shadow=0;fontFamily=Lucida Console;fontSize=14;" parent="1" vertex="1">
          <mxGeometry x="705.5" y="446" width="150" height="60" as="geometry">
            <mxRectangle x="340" y="240" width="140" height="30" as="alternateBounds" />
          </mxGeometry>
        </mxCell>
        <mxCell id="gqXj0iiXVJBeGMeopf4N-33" value="id" style="text;strokeColor=none;fillColor=none;align=left;verticalAlign=middle;spacingLeft=4;spacingRight=4;overflow=hidden;points=[[0,0.5],[1,0.5]];portConstraint=eastwest;rotatable=0;whiteSpace=wrap;html=1;glass=0;shadow=0;fontFamily=Lucida Console;fontSize=14;rounded=1;" parent="gqXj0iiXVJBeGMeopf4N-32" vertex="1">
          <mxGeometry y="30" width="150" height="30" as="geometry" />
        </mxCell>
        <mxCell id="gqXj0iiXVJBeGMeopf4N-34" value="Products Categories" style="text;html=1;align=center;verticalAlign=middle;whiteSpace=wrap;rounded=0;fillColor=none;strokeColor=none;" parent="1" vertex="1">
          <mxGeometry x="670" y="422" width="221" height="30" as="geometry" />
        </mxCell>
        <mxCell id="gqXj0iiXVJBeGMeopf4N-36" value="" style="rounded=0;whiteSpace=wrap;html=1;fillColor=none;dashed=1;strokeColor=#CDEB8B;" parent="1" vertex="1">
          <mxGeometry x="50" y="150" width="500" height="400" as="geometry" />
        </mxCell>
        <mxCell id="gqXj0iiXVJBeGMeopf4N-37" value="&lt;font style=&quot;font-size: 21px; color: rgb(0, 0, 0);&quot; face=&quot;Lucida Console&quot;&gt;&lt;b&gt;CRM&lt;/b&gt;&lt;/font&gt;" style="rounded=0;whiteSpace=wrap;html=1;fillColor=#cdeb8b;strokeColor=#36393d;" parent="1" vertex="1">
          <mxGeometry x="260" y="110" width="120" height="60" as="geometry" />
        </mxCell>
        <mxCell id="gqXj0iiXVJBeGMeopf4N-39" value="" style="rounded=0;whiteSpace=wrap;html=1;fillColor=none;dashed=1;strokeColor=#FFCCCC;" parent="1" vertex="1">
          <mxGeometry x="570" y="150" width="360" height="400" as="geometry" />
        </mxCell>
        <mxCell id="gqXj0iiXVJBeGMeopf4N-40" value="&lt;font style=&quot;font-size: 21px; color: rgb(0, 0, 0);&quot; face=&quot;Lucida Console&quot;&gt;&lt;b&gt;ERP&lt;/b&gt;&lt;/font&gt;" style="rounded=0;whiteSpace=wrap;html=1;fillColor=#FFCCCC;strokeColor=#36393d;" parent="1" vertex="1">
          <mxGeometry x="690" y="110" width="120" height="60" as="geometry" />
        </mxCell>
        <mxCell id="l-wlDNty2C3_1K11dqtN-1" value="&lt;font face=&quot;Lucida Console&quot; style=&quot;color: rgb(0, 0, 0);&quot;&gt;Product&lt;/font&gt;" style="text;align=center;fontStyle=1;verticalAlign=middle;spacingLeft=3;spacingRight=3;strokeColor=#36393d;rotatable=0;points=[[0,0.5],[1,0.5]];portConstraint=eastwest;html=1;fillColor=#cce5ff;" parent="1" vertex="1">
          <mxGeometry x="335" y="460" width="150" height="26" as="geometry" />
        </mxCell>
        <mxCell id="l-wlDNty2C3_1K11dqtN-2" value="&lt;font face=&quot;Lucida Console&quot; style=&quot;color: rgb(0, 0, 0);&quot;&gt;Product&lt;/font&gt;" style="text;align=center;fontStyle=1;verticalAlign=middle;spacingLeft=3;spacingRight=3;strokeColor=#36393d;rotatable=0;points=[[0,0.5],[1,0.5]];portConstraint=eastwest;html=1;fillColor=#cce5ff;" parent="1" vertex="1">
          <mxGeometry x="705.5" y="502" width="150" height="26" as="geometry" />
        </mxCell>
        <mxCell id="l-wlDNty2C3_1K11dqtN-3" value="&lt;font face=&quot;Lucida Console&quot; style=&quot;color: rgb(0, 0, 0);&quot;&gt;Customer&lt;/font&gt;" style="text;align=center;fontStyle=1;verticalAlign=middle;spacingLeft=3;spacingRight=3;strokeColor=#36393d;rotatable=0;points=[[0,0.5],[1,0.5]];portConstraint=eastwest;html=1;fillColor=#ffff88;" parent="1" vertex="1">
          <mxGeometry x="705.5" y="396" width="150" height="26" as="geometry" />
        </mxCell>
        <mxCell id="l-wlDNty2C3_1K11dqtN-4" value="&lt;font face=&quot;Lucida Console&quot; style=&quot;color: rgb(0, 0, 0);&quot;&gt;Customer&lt;/font&gt;" style="text;align=center;fontStyle=1;verticalAlign=middle;spacingLeft=3;spacingRight=3;strokeColor=#36393d;rotatable=0;points=[[0,0.5],[1,0.5]];portConstraint=eastwest;html=1;fillColor=#ffff88;" parent="1" vertex="1">
          <mxGeometry x="705.5" y="269" width="150" height="26" as="geometry" />
        </mxCell>
        <mxCell id="l-wlDNty2C3_1K11dqtN-5" value="&lt;font face=&quot;Lucida Console&quot; style=&quot;color: rgb(0, 0, 0);&quot;&gt;Customer&lt;/font&gt;" style="text;align=center;fontStyle=1;verticalAlign=middle;spacingLeft=3;spacingRight=3;strokeColor=#36393d;rotatable=0;points=[[0,0.5],[1,0.5]];portConstraint=eastwest;html=1;fillColor=#ffff88;" parent="1" vertex="1">
          <mxGeometry x="335" y="330" width="150" height="26" as="geometry" />
        </mxCell>
      </root>
    </mxGraphModel>
  </diagram>
</mxfile>
